<svg width="27" height="30" viewBox="0 0 27 30" fill="none" xmlns="http://www.w3.org/2000/svg">
<path d="M12 27.6373C12.4054 27.8714 12.8653 27.9946 13.3334 27.9946C13.8015 27.9946 14.2613 27.8714 14.6667 27.6373L24 22.304C24.405 22.0702 24.7414 21.734 24.9754 21.3291C25.2095 20.9242 25.3329 20.4649 25.3334 19.9973V9.33064C25.3329 8.86301 25.2095 8.40372 24.9754 7.99886C24.7414 7.59399 24.405 7.25779 24 7.02397L14.6667 1.69064C14.2613 1.45659 13.8015 1.33337 13.3334 1.33337C12.8653 1.33337 12.4054 1.45659 12 1.69064L2.66671 7.02397C2.26172 7.25779 1.92535 7.59399 1.69132 7.99886C1.4573 8.40372 1.33385 8.86301 1.33337 9.33064V19.9973C1.33385 20.4649 1.4573 20.9242 1.69132 21.3291C1.92535 21.734 2.26172 22.0702 2.66671 22.304L12 27.6373Z" stroke="white" stroke-width="2.66667" stroke-linecap="round" stroke-linejoin="round"/>
</svg>
