<svg width="22" height="15" viewBox="0 0 22 15" fill="none" xmlns="http://www.w3.org/2000/svg">
<path d="M5.46359 1C5.03085 1.00449 4.61124 1.14923 4.26774 1.41248C3.92425 1.67573 3.67542 2.0433 3.55859 2.46L1.06359 11.5C0.987996 11.7926 0.979682 12.0985 1.03928 12.3947C1.09887 12.691 1.22483 12.9699 1.40768 13.2105C1.59053 13.4511 1.82552 13.6471 2.095 13.7839C2.36449 13.9206 2.66145 13.9945 2.96359 14H18.9636C19.2723 13.9999 19.5767 13.9283 19.8531 13.7909C20.1295 13.6535 20.3704 13.454 20.5568 13.208C20.7433 12.962 20.8702 12.6762 20.9278 12.3729C20.9854 12.0697 20.9719 11.7572 20.8886 11.46L18.3636 2.5C18.2535 2.07341 18.0056 1.69512 17.6584 1.42388C17.3112 1.15265 16.8842 1.00364 16.4436 1H5.46359Z" stroke="#90A1B9" stroke-width="2" stroke-linecap="round" stroke-linejoin="round"/>
</svg>
